<svg xmlns="http://www.w3.org/2000/svg" width="24" height="24" viewBox="0 0 24 24">
    <g id="prefix__ic-home" transform="translate(2 -10.675)">
        <path id="prefix__Rectangle_1995" d="M0 0H24V24H0z" data-name="Rectangle 1995" transform="translate(-2 10.675)" style="fill:none"/>
        <path id="prefix__Path_2673" d="M19.664 21.117l-8.973-8.172a1.021 1.021 0 0 0-1.382 0L.336 21.117a1.025 1.025 0 0 0 .691 1.783H2.46v8.188a.588.588 0 0 0 .588.588h4.918a.588.588 0 0 0 .588-.588v-4.972h2.891v4.972a.588.588 0 0 0 .588.588h4.918a.588.588 0 0 0 .588-.588V22.9h1.433a1.025 1.025 0 0 0 .691-1.783z" data-name="Path 2673" style="fill:#fff"/>
    </g>
</svg>
