<svg xmlns="http://www.w3.org/2000/svg" width="24" height="24" viewBox="0 0 24 24">
    <defs>
        <style>
            .prefix__cls-2{fill:#263c58}
        </style>
    </defs>
    <g id="prefix__ic-history" transform="translate(2 -10.675)">
        <path id="prefix__Rectangle_1995" d="M0 0H24V24H0z" data-name="Rectangle 1995" transform="translate(-2 10.675)" style="fill:none"/>
        <g id="prefix__Group_60168" data-name="Group 60168" transform="translate(.286 .286)">
            <g id="prefix__water-2" transform="translate(5.19 16.06)">
                <path id="prefix__Subtraction_1" d="M4.149 11.647A4.153 4.153 0 0 1 0 7.5C0 5.233 4.107.052 4.149 0l.01.011C4.583.549 8.3 5.333 8.3 7.5a4.154 4.154 0 0 1-4.151 4.147zm2.692-4.512a.373.373 0 0 0-.364.364 2.331 2.331 0 0 1-2.328 2.328.364.364 0 0 0 0 .727A3.06 3.06 0 0 0 7.207 7.5a.374.374 0 0 0-.366-.365z" class="prefix__cls-2" data-name="Subtraction 1"/>
            </g>
            <path id="prefix__Path_2675" d="M437.721 412.375c.03.407.068.814.087 1.222a11.12 11.12 0 0 1-.141 2l-.263 1.115a12.141 12.141 0 0 1-.918 2.093 9.907 9.907 0 0 1-5.6 4.541c-.063.021-.122.051-.183.077l-1.118.266a11.33 11.33 0 0 1-2.243.133c-.326-.019-.651-.054-.976-.081l-.716-.135a12.254 12.254 0 0 1-2.321-.823l-.5-.269a13.25 13.25 0 0 1-1.816-1.333l-.5-.5a13.085 13.085 0 0 1-1.3-1.732l-.3-.54a12.626 12.626 0 0 1-.85-2.327l-.141-.712c-.035-.48-.1-.957-.1-1.441a12.007 12.007 0 0 1 .132-1.75l.239-1.1a11.642 11.642 0 0 1 1-2.3 10.171 10.171 0 0 1 1.664-2.118c.042-.041.08-.085.148-.157-.392-.053-.785-.05-1-.432a.72.72 0 0 1 .815-1.034c.074.007.148.009.222.014.569.079 1.138.165 1.708.234a.893.893 0 0 1 .664.384 1.609 1.609 0 0 1 .047.849c-.073.515-.152 1.029-.219 1.545-.059.458-.258.726-.6.781-.381.062-.643-.106-.84-.537a2.738 2.738 0 0 1 .049-.629 8.891 8.891 0 0 0-2.5 4.686 7 7 0 0 0-.131 1.577 3.978 3.978 0 0 0 .045.806 7.858 7.858 0 0 0 .642 2.512 2.933 2.933 0 0 0 .279.576 7.277 7.277 0 0 0 1.307 1.875 3.018 3.018 0 0 0 .492.494 7.105 7.105 0 0 0 1.834 1.294 2.158 2.158 0 0 0 .577.277 7.247 7.247 0 0 0 2.507.665 3.657 3.657 0 0 0 .848.058 6.846 6.846 0 0 0 1.485-.107 7.934 7.934 0 0 0 2.769-.977 6.857 6.857 0 0 0 1.567-1.1 7.875 7.875 0 0 0 1.791-2.262 5.867 5.867 0 0 0 .555-1.181 8.1 8.1 0 0 0 .526-3.072 3.575 3.575 0 0 0-.054-.849 7.482 7.482 0 0 0-.661-2.509 2.409 2.409 0 0 0-.281-.576 7.1 7.1 0 0 0-1.3-1.834 3.068 3.068 0 0 0-.494-.492 7.306 7.306 0 0 0-1.875-1.308 2.871 2.871 0 0 0-.577-.276 7.745 7.745 0 0 0-2.512-.643 3.931 3.931 0 0 0-.806-.044c-.576-.04-.915-.437-.777-.913a.715.715 0 0 1 .715-.527c.5-.009.994.06 1.49.1l.714.134a12.846 12.846 0 0 1 2.329.842l.5.278a12.59 12.59 0 0 1 1.829 1.372l.444.444a13.1 13.1 0 0 1 1.336 1.8l.315.584a12.921 12.921 0 0 1 .8 2.276z" class="prefix__cls-2" data-name="Path 2675" transform="translate(-418.101 -391.444)"/>
        </g>
    </g>
</svg>
