<?xml version="1.0" encoding="UTF-8" standalone="no"?>
<svg
   xmlns:dc="http://purl.org/dc/elements/1.1/"
   xmlns:cc="http://creativecommons.org/ns#"
   xmlns:rdf="http://www.w3.org/1999/02/22-rdf-syntax-ns#"
   xmlns:svg="http://www.w3.org/2000/svg"
   xmlns="http://www.w3.org/2000/svg"
   xmlns:sodipodi="http://sodipodi.sourceforge.net/DTD/sodipodi-0.dtd"
   xmlns:inkscape="http://www.inkscape.org/namespaces/inkscape"
   inkscape:version="1.0 (4035a4fb49, 2020-05-01)"
   sodipodi:docname="ic-location1.svg"
   id="svg68"
   version="1.1"
   viewBox="0 0 24 24"
   height="24"
   width="24">
  <metadata
     id="metadata72">
    <rdf:RDF>
      <cc:Work
         rdf:about="">
        <dc:format>image/svg+xml</dc:format>
        <dc:type
           rdf:resource="http://purl.org/dc/dcmitype/StillImage" />
        <dc:title></dc:title>
      </cc:Work>
    </rdf:RDF>
  </metadata>
  <sodipodi:namedview
     inkscape:current-layer="prefix__ic-location"
     inkscape:window-maximized="1"
     inkscape:window-y="-8"
     inkscape:window-x="-8"
     inkscape:cy="11.20695"
     inkscape:cx="-3.3333095"
     inkscape:zoom="13.083333"
     showgrid="false"
     id="namedview70"
     inkscape:window-height="837"
     inkscape:window-width="1440"
     inkscape:pageshadow="2"
     inkscape:pageopacity="0"
     guidetolerance="10"
     gridtolerance="10"
     objecttolerance="10"
     borderopacity="1"
     bordercolor="#666666"
     pagecolor="#ffffff" />
  <defs
     id="defs60">
    <style
       id="style58">
            .prefix__cls-2{fill:#fff}
        </style>
  </defs>
  <g
     transform="translate(2 -10.675)"
     id="prefix__ic-location">
    <path
       style="fill:none"
       transform="translate(-2 10.675)"
       data-name="Rectangle 1995"
       d="M0 0H24V24H0z"
       id="prefix__Rectangle_1995" />
    <g
       style="fill:#263c58;fill-opacity:1"
       transform="translate(-1 11.676)"
       id="prefix__maps-and-location">
      <path
         style="fill:#263c58;fill-opacity:1"
         transform="translate(0 -341.77)"
         data-name="Path 4355"
         class="prefix__cls-2"
         d="M20.124 357.195a.645.645 0 0 0-.621 1.13c.768.422 1.208.889 1.208 1.283 0 .481-.682 1.227-2.6 1.877a23.014 23.014 0 0 1-7.115 1 23.014 23.014 0 0 1-7.115-1c-1.914-.65-2.6-1.4-2.6-1.877 0-.393.44-.861 1.208-1.283a.645.645 0 0 0-.621-1.13A3.066 3.066 0 0 0 0 359.607c0 .875.6 2.124 3.47 3.1A24.316 24.316 0 0 0 11 363.77a24.316 24.316 0 0 0 7.53-1.065c2.868-.974 3.47-2.223 3.47-3.1a3.066 3.066 0 0 0-1.876-2.41z"
         id="prefix__Path_4355" />
      <path
         style="fill:#263c58;fill-opacity:1"
         transform="translate(-82.889 -325.819)"
         data-name="Path 4356"
         class="prefix__cls-2"
         d="M89.022 344.6a20.939 20.939 0 0 0 9.732 0c1.6-.452 2.412-1.107 2.412-1.945s-.812-1.493-2.412-1.945c-.355-.1-.742-.189-1.153-.264q-.335.578-.7 1.191c.455.068.882.152 1.27.251a3.291 3.291 0 0 1 1.7.768 3.291 3.291 0 0 1-1.7.768 17.8 17.8 0 0 1-4.06.46c-.073.005-.147.008-.221.008s-.148 0-.221-.008a17.8 17.8 0 0 1-4.06-.46 3.291 3.291 0 0 1-1.7-.768 3.291 3.291 0 0 1 1.7-.768c.388-.1.815-.182 1.27-.251q-.367-.612-.7-1.191c-.411.075-.8.163-1.153.264-1.6.452-2.412 1.107-2.412 1.945s.808 1.495 2.408 1.945z"
         id="prefix__Path_4356" />
      <path
         style="fill:#263c58;fill-opacity:1"
         transform="translate(-111.552)"
         data-name="Path 4357"
         class="prefix__cls-2"
         d="M122.552 16.785a1.623 1.623 0 0 0 1.394-.785c2.1-3.431 4.6-7.954 4.6-10.011a5.992 5.992 0 0 0-11.983 0c0 2.058 2.5 6.58 4.6 10.011a1.623 1.623 0 0 0 1.389.785zm-2.408-11.2a2.408 2.408 0 1 1 2.408 2.408 2.411 2.411 0 0 1-2.409-2.413z"
         id="prefix__Path_4357" />
    </g>
  </g>
</svg>
