<svg xmlns="http://www.w3.org/2000/svg" width="24" height="24" viewBox="0 0 24 24">
    <defs>
        <style>
            .prefix__cls-2{fill:#263c58}
        </style>
    </defs>
    <g id="prefix__ic-notification" transform="translate(2 -10.675)">
        <path id="prefix__Rectangle_1995" d="M0 0H24V24H0z" data-name="Rectangle 1995" transform="translate(-2 10.675)" style="fill:none"/>
        <path id="prefix__Path_3" d="M-435.349 1035.182c1.5 0 2.71-.933 2.71-2.085h-5.421c.001 1.151 1.214 2.085 2.711 2.085z" class="prefix__cls-2" data-name="Path 3" transform="translate(445.36 -1002.505)"/>
        <path id="prefix__Path_4" d="M-745.418 123.143a2.369 2.369 0 0 0-.611-1.589 1.683 1.683 0 0 0-.542-.472 4.953 4.953 0 0 1-1.27-1.1 2.827 2.827 0 0 1-.455-1.266l-.346-3.3a5.985 5.985 0 0 0-2.142-3.2 6 6 0 0 0-1.373-.786v-.643a2.279 2.279 0 0 0-2.276-2.276 2.279 2.279 0 0 0-2.276 2.276v.643a6 6 0 0 0-3.515 3.987l-.346 3.3a2.824 2.824 0 0 1-.492 1.32 4.626 4.626 0 0 1-1.207 1.05c-.044.025-.084.052-.124.078h-.007c-.052.035-.1.072-.145.109a2.375 2.375 0 0 0-.9 1.864 2.37 2.37 0 0 0 .548 1.519 1.9 1.9 0 0 0 1.6.862h13.738a1.9 1.9 0 0 0 1.6-.862 2.37 2.37 0 0 0 .541-1.514zm-10.333-12.354a1.319 1.319 0 0 1 1.318-1.318 1.319 1.319 0 0 1 1.318 1.318v.341a5.985 5.985 0 0 0-1.318-.151 5.988 5.988 0 0 0-1.318.151z" class="prefix__cls-2" data-name="Path 4" transform="translate(764.445 -95.836)"/>
    </g>
</svg>
