<svg xmlns="http://www.w3.org/2000/svg" id="prefix__il-calendar" width="24" height="24" viewBox="0 0 24 24">
    <defs>
        <style>
            .prefix__cls-1{fill:#bbdefb}.prefix__cls-2,.prefix__cls-3{fill:#263c58}.prefix__cls-2{stroke:#263c58}
        </style>
    </defs>
    <rect id="prefix__Rectangle_1996" width="18" height="16" class="prefix__cls-1" data-name="Rectangle 1996" rx="1" transform="translate(3 5)"/>
    <circle id="prefix__Ellipse_16" cx=".938" cy=".938" r=".938" class="prefix__cls-2" data-name="Ellipse 16" transform="translate(17.156 8.906)"/>
    <path id="prefix__Path_2679" d="M20.25 1.875h-1.219V.938a.938.938 0 0 0-1.875 0v.938h-4.265V.938a.938.938 0 0 0-1.875 0v.938H6.8V.938a.938.938 0 0 0-1.875 0v.938H3.75A3.754 3.754 0 0 0 0 5.625V20.25A3.754 3.754 0 0 0 3.75 24h7.172a.938.938 0 0 0 0-1.875H3.75a1.877 1.877 0 0 1-1.875-1.875V5.625A1.877 1.877 0 0 1 3.75 3.75h1.172v.938a.938.938 0 0 0 1.875 0V3.75h4.219v.938a.938.938 0 0 0 1.875 0V3.75h4.266v.938a.938.938 0 0 0 1.875 0V3.75h1.218a1.877 1.877 0 0 1 1.875 1.875v5.344a.938.938 0 0 0 1.875 0V5.625a3.754 3.754 0 0 0-3.75-3.75z" class="prefix__cls-3" data-name="Path 2679"/>
    <circle id="prefix__Ellipse_17" cx=".938" cy=".938" r=".938" class="prefix__cls-2" data-name="Ellipse 17" transform="translate(13.078 8.906)"/>
    <circle id="prefix__Ellipse_18" cx=".938" cy=".938" r=".938" class="prefix__cls-2" data-name="Ellipse 18" transform="translate(9 12.984)"/>
    <circle id="prefix__Ellipse_24" cx=".938" cy=".938" r=".938" class="prefix__cls-2" data-name="Ellipse 24" transform="translate(13 12.984)"/>
    <circle id="prefix__Ellipse_19" cx=".938" cy=".938" r=".938" class="prefix__cls-2" data-name="Ellipse 19" transform="translate(4.922 8.906)"/>
    <circle id="prefix__Ellipse_20" cx=".938" cy=".938" r=".938" class="prefix__cls-2" data-name="Ellipse 20" transform="translate(4.922 12.984)"/>
    <circle id="prefix__Ellipse_21" cx=".938" cy=".938" r=".938" class="prefix__cls-2" data-name="Ellipse 21" transform="translate(4.922 17.063)"/>
    <circle id="prefix__Ellipse_22" cx=".938" cy=".938" r=".938" class="prefix__cls-2" data-name="Ellipse 22" transform="translate(9 17.063)"/>
    <circle id="prefix__Ellipse_23" cx=".938" cy=".938" r=".938" class="prefix__cls-2" data-name="Ellipse 23" transform="translate(9 8.906)"/>
    <g id="prefix__Group_60132" data-name="Group 60132" transform="translate(16.8 13.252)">
        <path id="prefix__Path_2713" d="M346.92 178.768l1.028 1.981a3.105 3.105 0 1 1-5.764 0l2.882-5.555 1.218 2.348" data-name="Path 2713" transform="translate(-341.53 -174.744)" style="fill:#a8c7e2"/>
        <path id="prefix__Path_2714" d="M382.675 177.651l-.007-.016-2.882-5.555a.141.141 0 0 0-.125-.076l-1.135 6.6a.161.161 0 0 0 0 .019 3.667 3.667 0 0 0 1.908 3.4c.1-.027.2-.058.294-.094a3.325 3.325 0 0 0 1.947-4.278z" class="prefix__cls-1" data-name="Path 2714" transform="translate(-376.152 -171.721)"/>
        <path id="prefix__Path_2715" d="M336.889 177.335h-.014a3.631 3.631 0 0 1-3.291-4.9.466.466 0 0 1 .022-.05l2.882-5.555a.451.451 0 0 1 .8 0l1.218 2.348a.451.451 0 0 1-.8.416l-.818-1.576-2.468 4.757a2.654 2.654 0 1 0 4.936 0l-1.015-1.956a.451.451 0 1 1 .8-.416l1.028 1.981a.456.456 0 0 1 .022.05 3.631 3.631 0 0 1-3.291 4.9z" class="prefix__cls-3" data-name="Path 2715" transform="translate(-333.353 -166.587)"/>
    </g>
</svg>
