<svg xmlns="http://www.w3.org/2000/svg" id="prefix__il-humidity" width="24" height="24" viewBox="0 0 24 24">
    <defs>
        <linearGradient id="prefix__linear-gradient" x1="-.088" x2="-.045" y1="1.249" y2="1.229" gradientUnits="objectBoundingBox">
            <stop offset="0" stop-color="#fff" stop-opacity=".2"/>
            <stop offset="1" stop-color="#fff" stop-opacity="0"/>
        </linearGradient>
        <style>
            .prefix__cls-2{fill:#263c58}
        </style>
    </defs>
    <path id="prefix__Base" d="M0 0H24V24H0z" style="fill:none"/>
    <g id="prefix__humidity-2" transform="translate(0 2)">
        <path id="prefix__Path_2693" d="M135.5 20a7.509 7.509 0 0 1-7.5-7.5c0-5.8 6.926-12.126 7.22-12.392a.416.416 0 0 1 .559 0C136.077.374 143 6.7 143 12.5a7.509 7.509 0 0 1-7.5 7.5z" class="prefix__cls-2" data-name="Path 2693" transform="translate(-123.003 .001)"/>
        <path id="prefix__Path_2694" d="M156 25.339c-1.3 1.251-6.667 6.717-6.667 11.51a6.667 6.667 0 1 0 13.333 0c.003-4.797-5.366-10.26-6.666-11.51z" data-name="Path 2694" transform="translate(-143.503 -24.349)" style="fill:#bbdefb"/>
        <path id="prefix__Path_2695" d="M165.571 25.339l-.006.006c1.691 2.237 3.339 5.1 3.339 7.755a6.652 6.652 0 0 1-9.611 5.972 6.662 6.662 0 0 0 12.944-2.222c0-4.798-5.368-10.261-6.666-11.511z" data-name="Path 2695" transform="translate(-153.071 -24.349)" style="opacity:.1"/>
        <g id="prefix__Group_60128" data-name="Group 60128" transform="translate(0 8.333)">
            <path id="prefix__Path_2696" d="M7.6 215a2.259 2.259 0 0 1-1.436-.491 1.519 1.519 0 0 0-1.921 0 2.259 2.259 0 0 1-1.431.491 2.255 2.255 0 0 1-1.435-.492 1.447 1.447 0 0 0-.959-.342.417.417 0 0 1 0-.833 2.255 2.255 0 0 1 1.435.492 1.447 1.447 0 0 0 .959.342 1.448 1.448 0 0 0 .96-.342 2.258 2.258 0 0 1 1.436-.491 2.261 2.261 0 0 1 1.437.491 1.519 1.519 0 0 0 1.921 0 2.261 2.261 0 0 1 1.434-.487.417.417 0 0 1 0 .833 1.45 1.45 0 0 0-.961.342A2.261 2.261 0 0 1 7.6 215z" class="prefix__cls-2" data-name="Path 2696" transform="translate(-.002 -213.338)"/>
            <path id="prefix__Path_2697" d="M7.6 407a2.259 2.259 0 0 1-1.436-.491 1.519 1.519 0 0 0-1.921 0 2.259 2.259 0 0 1-1.431.491 2.255 2.255 0 0 1-1.435-.492 1.448 1.448 0 0 0-.959-.342.417.417 0 0 1 0-.833 2.255 2.255 0 0 1 1.435.492 1.447 1.447 0 0 0 .959.342 1.448 1.448 0 0 0 .96-.342 2.258 2.258 0 0 1 1.436-.491 2.261 2.261 0 0 1 1.437.491 1.519 1.519 0 0 0 1.921 0 2.261 2.261 0 0 1 1.434-.487.417.417 0 0 1 0 .833 1.45 1.45 0 0 0-.961.342A2.261 2.261 0 0 1 7.6 407z" class="prefix__cls-2" data-name="Path 2697" transform="translate(-.002 -397.838)"/>
            <path id="prefix__Path_2698" d="M2.812 343a2.255 2.255 0 0 1-1.435-.492 1.448 1.448 0 0 0-.959-.342.417.417 0 1 1 0-.833 2.255 2.255 0 0 1 1.435.491 1.447 1.447 0 0 0 .959.342.417.417 0 0 1 0 .833z" class="prefix__cls-2" data-name="Path 2698" transform="translate(-.002 -336.338)"/>
            <path id="prefix__Path_2699" d="M130.307 343a2.461 2.461 0 0 1-1.475-.482 1.666 1.666 0 0 0-1.025-.351 1.449 1.449 0 0 0-.961.342 2.346 2.346 0 0 1-2.873 0 1.449 1.449 0 0 0-.961-.342.417.417 0 1 1 0-.833 2.259 2.259 0 0 1 1.436.491 1.52 1.52 0 0 0 1.921 0 2.261 2.261 0 0 1 1.437-.491 2.461 2.461 0 0 1 1.475.482 1.665 1.665 0 0 0 1.025.351.417.417 0 0 1 0 .833z" class="prefix__cls-2" data-name="Path 2699" transform="translate(-117.807 -336.337)"/>
            <path id="prefix__Path_2700" d="M2.812 279a2.255 2.255 0 0 1-1.435-.491 1.447 1.447 0 0 0-.959-.342.417.417 0 0 1 0-.833 2.255 2.255 0 0 1 1.435.492 1.447 1.447 0 0 0 .959.342 1.448 1.448 0 0 0 .96-.342 2.257 2.257 0 0 1 1.436-.491.417.417 0 0 1 0 .833 1.449 1.449 0 0 0-.959.342 2.259 2.259 0 0 1-1.437.49z" class="prefix__cls-2" data-name="Path 2700" transform="translate(-.002 -274.838)"/>
            <path id="prefix__Path_2701" d="M189.177 279a2.255 2.255 0 0 1-1.435-.491 1.518 1.518 0 0 0-1.919 0 2.261 2.261 0 0 1-1.436.491.417.417 0 1 1 0-.833 1.449 1.449 0 0 0 .96-.342 2.343 2.343 0 0 1 2.871 0 1.516 1.516 0 0 0 1.919 0 2.257 2.257 0 0 1 1.436-.491.417.417 0 0 1 0 .833 1.449 1.449 0 0 0-.959.342 2.259 2.259 0 0 1-1.437.491z" class="prefix__cls-2" data-name="Path 2701" transform="translate(-176.784 -274.838)"/>
        </g>
        <path id="prefix__Path_2702" d="M.417 14.167a1.447 1.447 0 0 1 .959.342A2.255 2.255 0 0 0 2.81 15a.417.417 0 1 0 0-.833 1.447 1.447 0 0 1-.959-.342 2.255 2.255 0 0 0-1.435-.492.417.417 0 0 0 0 .833zM12.78.108a.416.416 0 0 0-.559 0A28.768 28.768 0 0 0 5.96 8.461a2.207 2.207 0 0 0-.755-.127 2.258 2.258 0 0 0-1.436.491 1.448 1.448 0 0 1-.96.342 1.447 1.447 0 0 1-.959-.342 2.255 2.255 0 0 0-1.433-.492.417.417 0 1 0 0 .833 1.447 1.447 0 0 1 .959.342A2.255 2.255 0 0 0 2.81 10a2.259 2.259 0 0 0 1.436-.492 1.449 1.449 0 0 1 .959-.342 1.431 1.431 0 0 1 .434.064 11.076 11.076 0 0 0-.446 1.6 2.262 2.262 0 0 0-1.424.49 1.448 1.448 0 0 1-.96.342 1.447 1.447 0 0 1-.959-.342 2.255 2.255 0 0 0-1.435-.492.417.417 0 1 0 0 .833 1.447 1.447 0 0 1 .959.342 2.255 2.255 0 0 0 1.436.497 2.259 2.259 0 0 0 1.436-.492 1.506 1.506 0 0 1 .813-.329A7.791 7.791 0 0 0 5 12.5a7.518 7.518 0 0 0 .054.864.414.414 0 0 0 .139.8 7.441 7.441 0 0 0 .642 1.758 2.323 2.323 0 0 0-2.064.4 1.448 1.448 0 0 1-.96.342 1.447 1.447 0 0 1-.959-.342 2.255 2.255 0 0 0-1.435-.492.417.417 0 0 0 0 .833 1.447 1.447 0 0 1 .959.342 2.255 2.255 0 0 0 1.434.495 2.259 2.259 0 0 0 1.436-.492 1.519 1.519 0 0 1 1.921 0 2.848 2.848 0 0 0 .629.348A7.493 7.493 0 0 0 20 12.5C20 6.7 13.074.375 12.78.108z" data-name="Path 2702"/>
    </g>
</svg>
