<svg xmlns="http://www.w3.org/2000/svg" width="27.932" height="25.827" viewBox="0 0 27.932 25.827">
    <defs>
        <style>
            .prefix__cls-1{fill:#263c58}.prefix__cls-3{fill:#bbdefb}
        </style>
    </defs>
    <g id="prefix__il-pump" transform="translate(-396.03 -202.157)">
        <path id="prefix__Rectangle_2026" d="M0 0H3.871V2.348H0z" class="prefix__cls-1" data-name="Rectangle 2026" transform="translate(405.712 215.36)"/>
        <g id="prefix__Group_60149" data-name="Group 60149" transform="translate(413.296 210.129)">
            <path id="prefix__Rectangle_2027" d="M0 0H7.335V0.444H0z" data-name="Rectangle 2027" style="fill:#4a4b4c"/>
        </g>
        <path id="prefix__Rectangle_2028" d="M0 0H4.088V3.402H0z" class="prefix__cls-1" data-name="Rectangle 2028" transform="translate(396.03 214.833)"/>
        <g id="prefix__Group_60150" data-name="Group 60150" transform="translate(399.452 202.157)">
            <path id="prefix__Path_4332" d="M443.029 211.341H441.5v-5.824h-2.958v5.824h-1.532v1.267h6.021z" class="prefix__cls-3" data-name="Path 4332" transform="translate(-435.015 -205.074)"/>
            <path id="prefix__Path_4333" d="M426.837 259.18v1.267h1.532v1.832H426.7l-1.415 1.415v4.523l1.548 1.548h4.49v-9.318h1.532v-1.267z" class="prefix__cls-3" data-name="Path 4333" transform="translate(-424.845 -251.645)"/>
            <path id="prefix__Path_4334" d="M428.855 220.721h-4.9a.529.529 0 0 1-.374-.155l-1.5-1.5a.528.528 0 0 1-.155-.374v-4.453a.529.529 0 0 1 .155-.374l1.366-1.366a.529.529 0 0 1 .374-.155h1.186v-.944h-1.268a.264.264 0 0 1-.264-.264v-2.894a.264.264 0 0 1 .264-.264h1.268v-5.824h3.846v5.824h1.268a.264.264 0 0 1 .264.264v2.894a.264.264 0 0 1-.264.264h-1.268zm-4.75-.888h3.862v-9.318h1.533v-1.647h-1.532v-5.823H425.9v5.823h-1.532v1.647h1.532v2.72h-1.925l-1.155 1.155v4.155z" class="prefix__cls-1" data-name="Path 4334" transform="translate(-421.929 -202.157)"/>
        </g>
        <g id="prefix__Group_60151" data-name="Group 60151" transform="translate(412.852 207.513)">
            <path id="prefix__Path_4335" d="M526.7 246.053v1.515l.879.879h5.577l.879-.879v-1.515z" data-name="Path 4335" transform="translate(-526.257 -245.609)" style="fill:#a8c7e2"/>
            <path id="prefix__Path_4336" d="M530.424 245.975h-5.945l-.984-.984a.529.529 0 0 1-.155-.374v-1.66a.264.264 0 0 1 .264-.264h7.696a.264.264 0 0 1 .264.264v1.66a.529.529 0 0 1-.155.374zm-5.577-.888h5.209l.619-.619v-.887h-6.447v.887z" class="prefix__cls-1" data-name="Path 4336" transform="translate(-523.34 -242.693)"/>
        </g>
        <g id="prefix__Group_60152" data-name="Group 60152" transform="translate(401.444 209.581)">
            <path id="prefix__Rectangle_2029" d="M0 0H6.021V0.222H0z" class="prefix__cls-1" data-name="Rectangle 2029"/>
        </g>
        <g id="prefix__Group_60153" data-name="Group 60153" transform="translate(408.917 209.907)">
            <path id="prefix__Path_4337" d="M508.188 264.17h-7.335a2.387 2.387 0 0 0-2.387 2.387v.813h-1.548v5.964h1.548v.813a2.387 2.387 0 0 0 2.387 2.387v2.281h1.889v-2.281h3.558v2.281h1.889v-2.281a2.387 2.387 0 0 0 2.387-2.387v-7.591a2.387 2.387 0 0 0-2.388-2.386z" class="prefix__cls-3" data-name="Path 4337" transform="translate(-496.474 -263.726)"/>
            <path id="prefix__Path_4338" d="M505.715 276.344h-2.777v-2.281h-2.668v2.281h-2.777v-2.315a2.836 2.836 0 0 1-2.387-2.8v-.369h-1.284a.264.264 0 0 1-.264-.264v-6.324a.264.264 0 0 1 .264-.264h1.284v-.369a2.831 2.831 0 0 1 2.831-2.831h7.335a2.831 2.831 0 0 1 2.831 2.831v7.591a2.836 2.836 0 0 1-2.387 2.8zm-1.889-.888h1v-2.281h.444a1.946 1.946 0 0 0 1.943-1.943v-7.591a1.946 1.946 0 0 0-1.943-1.943h-7.335a1.946 1.946 0 0 0-1.943 1.943v1.259h-1.548v5.076h1.548v1.257a1.945 1.945 0 0 0 1.943 1.943h.444v2.281h1v-2.281h4.444z" class="prefix__cls-1" data-name="Path 4338" transform="translate(-493.557 -260.81)"/>
        </g>
        <g id="prefix__Group_60154" data-name="Group 60154" transform="translate(401.2 212.791)">
            <path id="prefix__Rectangle_2030" d="M0 0H0.222V7.487H0z" class="prefix__cls-1" data-name="Rectangle 2030"/>
        </g>
        <g id="prefix__Group_60155" data-name="Group 60155" transform="translate(410.889 213.552)">
            <path id="prefix__Rectangle_2031" d="M0 0H0.444V5.964H0z" class="prefix__cls-1" data-name="Rectangle 2031"/>
        </g>
        <g id="prefix__Group_60156" data-name="Group 60156" transform="translate(413.518 210.351)">
            <path id="prefix__Rectangle_2032" d="M0 0H0.222V12.366H0z" class="prefix__cls-1" data-name="Rectangle 2032"/>
        </g>
        <g id="prefix__Group_60157" data-name="Group 60157" transform="translate(420.187 210.351)">
            <path id="prefix__Rectangle_2033" d="M0 0H0.222V12.366H0z" class="prefix__cls-1" data-name="Rectangle 2033"/>
        </g>
        <g id="prefix__Group_60163" data-name="Group 60163" transform="translate(413.629 212.541)">
            <g id="prefix__Group_60158" data-name="Group 60158">
                <path id="prefix__Rectangle_2034" d="M0 0H6.669V0.222H0z" class="prefix__cls-1" data-name="Rectangle 2034"/>
            </g>
            <g id="prefix__Group_60159" data-name="Group 60159" transform="translate(0 1.941)">
                <path id="prefix__Rectangle_2035" d="M0 0H6.669V0.222H0z" class="prefix__cls-1" data-name="Rectangle 2035"/>
            </g>
            <g id="prefix__Group_60160" data-name="Group 60160" transform="translate(0 3.882)">
                <path id="prefix__Rectangle_2036" d="M0 0H6.669V0.222H0z" class="prefix__cls-1" data-name="Rectangle 2036"/>
            </g>
            <g id="prefix__Group_60161" data-name="Group 60161" transform="translate(0 5.823)">
                <path id="prefix__Rectangle_2037" d="M0 0H6.669V0.222H0z" class="prefix__cls-1" data-name="Rectangle 2037"/>
            </g>
            <g id="prefix__Group_60162" data-name="Group 60162" transform="translate(0 7.764)">
                <path id="prefix__Rectangle_2038" d="M0 0H6.669V0.222H0z" class="prefix__cls-1" data-name="Rectangle 2038"/>
            </g>
        </g>
        <path id="prefix__Path_4339" d="M429.255 340.65v-4.72h-3.346v2.36h-2.162a1.358 1.358 0 0 0-1.357 1.357v3.669a.264.264 0 0 0 .264.264h23.42a.264.264 0 0 0 .264-.264v-2.4a.264.264 0 0 0-.264-.264z" data-name="Path 4339" transform="translate(-22.877 -116.096)" style="stroke:#263c58;fill:#bbdefb"/>
        <path id="prefix__Path_4340" d="M429.11 345.479a.469.469 0 0 1 .469-.469h3.05v-2.36h1.57v3.832h-5.089z" class="prefix__cls-3" data-name="Path 4340" transform="translate(-28.709 -121.928)"/>
    </g>
</svg>
