<svg xmlns="http://www.w3.org/2000/svg" width="166.531" height="39.135" viewBox="0 0 166.531 39.135">
    <defs>
        <linearGradient id="prefix__linear-gradient" x1=".5" x2=".5" y2="1" gradientUnits="objectBoundingBox">
            <stop offset="0" stop-color="#2160b5"/>
            <stop offset="1" stop-color="#77b0ff"/>
        </linearGradient>
        <linearGradient id="prefix__linear-gradient-2" x1=".634" x2=".162" y2="1" gradientUnits="objectBoundingBox">
            <stop offset="0" stop-color="#2160b5"/>
            <stop offset="1" stop-color="#196cd9"/>
        </linearGradient>
    </defs>
    <g id="prefix__logo-full" transform="translate(817.969 -162.602)">
        <path id="prefix__Union_46" d="M15.978 14.792a17.633 17.633 0 0 0-2.022-.4C6.586 12.546 1.982 7.936.081.616c-.155-.6-.135-.6.487-.6 1.4 0 2.8.017 4.194-.011a.632.632 0 0 1 .748.522A12.829 12.829 0 0 0 18.7 9.52 12.848 12.848 0 0 0 30.039.5c.117-.384.261-.5.661-.5 1.451.022 2.9.026 4.357 0 .458-.009.511.109.419.541A18.145 18.145 0 0 1 20.44 14.6c-.3.044-.642-.022-.913.192zm1.672-6.431A11.69 11.69 0 0 1 6.726.527C6.567.062 6.689 0 7.124 0c3.546.013 7.094.009 10.642.009h10.589c.617 0 .617 0 .417.581a11.647 11.647 0 0 1-11.059 7.771z" data-name="Union 46" transform="translate(-815.121 186.446)"/>
        <path id="prefix__Path_4322" d="M-813.986 185.277c-1.13 0-2.259-.013-3.388.008-.347.006-.5-.06-.53-.449a20.721 20.721 0 0 1 .013-3.428c.026-.28.121-.359.391-.35.573.018 1.148 0 1.721.01.25.006.351-.087.38-.329a16.568 16.568 0 0 1 1.064-4.139.366.366 0 0 0-.215-.545c-.479-.242-.937-.524-1.415-.769-.248-.127-.339-.243-.2-.536a24 24 0 0 1 1.723-3.087c.164-.251.3-.225.513-.1.479.28.976.529 1.45.817.257.156.4.1.569-.129a17.748 17.748 0 0 1 3.471-3.5c.213-.163.254-.282.107-.516-.3-.485-.559-1-.864-1.482-.153-.243-.1-.36.122-.509a24.707 24.707 0 0 1 3.025-1.734c.308-.149.441-.061.582.209.239.459.517.9.761 1.356a.393.393 0 0 0 .592.219 16.683 16.683 0 0 1 4.3-1.124c.272-.032.362-.145.355-.413-.016-.572.005-1.145-.01-1.717-.006-.247.071-.335.326-.359a19.637 19.637 0 0 1 3.543-.006c.325.028.369.171.361.441-.016.536.009 1.074-.01 1.609-.011.3.106.411.392.445a16.264 16.264 0 0 1 4.046 1.036c.323.127.479.048.625-.247.23-.464.506-.9.745-1.365.128-.246.252-.335.542-.2a23.939 23.939 0 0 1 3.092 1.725c.214.142.241.257.115.472-.291.492-.551 1-.844 1.494-.133.223-.136.358.095.528a17.355 17.355 0 0 1 3.512 3.453c.2.259.355.269.616.106.47-.293.969-.542 1.441-.832.218-.134.328-.1.47.107a23.093 23.093 0 0 1 1.765 3.064c.134.278.06.412-.195.545-.46.24-.9.522-1.358.762-.283.147-.379.283-.241.621a15.856 15.856 0 0 1 1.11 4.181c.042.362.2.467.554.444.5-.032 1 .012 1.505-.015.317-.017.456.079.472.4a31.066 31.066 0 0 1 0 3.432c-.017.282-.131.394-.435.393-2.331-.012-4.662-.018-6.992 0-.469 0-.425-.233-.386-.534a12.527 12.527 0 0 0-.547-5.607 12.809 12.809 0 0 0-11.116-8.731 12.814 12.814 0 0 0-13.817 11.064 11.245 11.245 0 0 0 .006 3.368c.064.406-.076.439-.4.435-1.179 0-2.344.008-3.509.008z" data-name="Path 4322" style="fill:#ffba38"/>
        <path id="prefix__Path_4324" d="M-728.736 228.019c-2.1 0-4.194-.011-6.29.009-.4 0-.507-.107-.507-.508a10.063 10.063 0 0 1 8.6-9.765 2.684 2.684 0 0 1 2.952 1.275 11.945 11.945 0 0 1 2.125 8.579c-.047.364-.223.417-.536.415-2.114-.01-4.229-.005-6.344-.005z" data-name="Path 4324" transform="translate(-63.945 -42.743)" style="fill:#8dc63f"/>
        <path id="prefix__Path_4330" d="M-773.833 240.911c-1.217 0-2.434-.011-3.651.008-.322.005-.445-.11-.487-.409a11.9 11.9 0 0 1 .518-5.49.538.538 0 0 1 .444-.392 9.961 9.961 0 0 1 7.87 1.3c.263.164.25.322.153.565a10.056 10.056 0 0 0-.741 3.969c.007.348-.1.463-.454.457-1.219-.019-2.435-.008-3.652-.008z" data-name="Path 4330" transform="translate(-30.935 -55.635)" style="fill:#8dc740"/>
        <g id="prefix__Group_60141" data-name="Group 60141" transform="translate(-765.429 177.897)">
            <path id="prefix__Union_47" d="M89.176 14.586a3.845 3.845 0 0 0-1.111-.309 7.132 7.132 0 0 1-5.287-7.149A7.088 7.088 0 0 1 88.555.211a7.746 7.746 0 0 1 7.708 2.267 6.933 6.933 0 0 1 1.4 7.259 7 7 0 0 1-5.689 4.729.6.6 0 0 1-.1.005c-.089 0-.18 0-.225.115zM85.429 7.3a4.993 4.993 0 0 0 9.985-.013 4.993 4.993 0 0 0-9.985.013zm-10.776 7.286a2.756 2.756 0 0 0-1-.292 7.127 7.127 0 0 1-5.307-7.5A7.162 7.162 0 0 1 74.8.087a7.661 7.661 0 0 1 6.253 1.767c.551.487.544.5.024.984-.365.343-.681.846-1.113.983-.477.151-.762-.488-1.162-.74a5.219 5.219 0 0 0-7.21 1.743 5.055 5.055 0 0 0 2.151 6.964 5.242 5.242 0 0 0 5.8-.889c.287-.271.425-.236.664.021a13.561 13.561 0 0 0 1.093 1.033c.233.2.228.333.012.549a7.078 7.078 0 0 1-3.912 1.969c-.1.017-.222-.022-.271.114zm36.759-.264c-.628-.222-.937-.988-1.376-1.521q-3.2-3.9-6.386-7.808a1 1 0 0 0-.1-.09c-.123.161-.06.342-.06.5 0 2.824-.011 5.648.005 8.471 0 .388-.075.538-.495.509a17.1 17.1 0 0 0-1.718 0c-.29.009-.407-.058-.407-.379q.014-6.7 0-13.4c0-.3.084-.436.391-.389a.178.178 0 0 0 .053 0 2.64 2.64 0 0 1 2.781 1.237c2.052 2.685 4.245 5.26 6.385 7.878a.837.837 0 0 0 .4.359v-.527c0-2.788.01-5.576-.01-8.364 0-.447.069-.638.575-.6.677.05 1.361.01 2.042.007V14.37c-.425 0-.873.063-1.3.063a2.338 2.338 0 0 1-.78-.112zm-68.92.067c-.71-.037-1.422-.011-2.125-.011a.663.663 0 0 1 .122-.5q2.982-6.613 5.96-13.232A.6.6 0 0 1 47.118.2a12.405 12.405 0 0 0 1.666 0 .6.6 0 0 1 .672.443q2.53 5.644 5.088 11.277l1.111 2.458c-.858 0-1.612-.021-2.362.01-.34.014-.462-.14-.579-.414q-2.255-5.267-4.527-10.528c-.071-.163-.145-.323-.249-.553-.089.184-.155.31-.211.441q-2.273 5.29-4.537 10.581c-.136.319-.288.475-.633.475zm-7.93 0a12.77 12.77 0 0 0-1.665 0 .589.589 0 0 1-.664-.445q-2.561-5.9-5.152-11.777C26.8 1.531 26.528.9 26.229.21c.91 0 1.749.013 2.587-.008.331-.007.361.227.45.432l4.3 9.928a.979.979 0 0 0 .284.488l2.291-5.25C36.9 4.066 37.66 2.334 38.4.594A.539.539 0 0 1 39 .2c.714.026 1.43.009 2.218.009l-1.3 2.983q-2.347 5.374-4.687 10.753c-.131.3-.276.444-.59.444zm-32.335 0c-.59-.03-1.184-.028-1.773 0C.1 14.4 0 14.295 0 13.939c.018-1.68.007-3.359.007-5.04 0-2.717.008-5.433-.007-8.15C0 .358.056.19.515.2c.956.012 1.911.01 2.869.009.925 0 1.85 0 2.775.011a6.555 6.555 0 0 1 3.9 1.168 4.841 4.841 0 0 1-.646 8.082c-.5.251-.439.415-.167.788.863 1.185 1.694 2.394 2.532 3.6a.951.951 0 0 1 .262.524c-.842 0-1.648-.012-2.453.007a.55.55 0 0 1-.5-.319c-.8-1.146-1.607-2.278-2.39-3.433a.759.759 0 0 0-.745-.378c-.948.028-1.9.027-2.848 0-.363-.01-.447.119-.442.458.019 1.072-.005 2.144.015 3.216.006.325-.075.455-.386.455zM2.666 2.8v2.469c0 .806.005 1.61 0 2.415 0 .243.02.4.337.4.441-.01.883-.01 1.326-.01.742 0 1.483 0 2.222-.045a2.644 2.644 0 0 0 2.69-2.537 2.578 2.578 0 0 0-2.4-2.943 13.082 13.082 0 0 0-2.526-.106c-.465.01-.929.02-1.393 0H2.9c-.256.004-.234.18-.234.357zm12.169 11.1q.017-6.594 0-13.189c0-.382.067-.519.49-.517q4.7.03 9.406 0c.424 0 .524.133.494.517a6.414 6.414 0 0 0 0 1.124c.045.458-.087.612-.582.6-1.157-.016-2.314-.015-3.471-.014-1.028 0-2.057 0-3.085-.009-.454-.005-.628.08-.6.578.05 1.035.031 2.072.039 3.108 2.254 0 4.508.007 6.762-.009.364 0 .518.081.487.47a7.728 7.728 0 0 0 0 1.23c.03.387-.12.475-.486.472-2.254-.015-4.508-.007-6.762-.006-.009 1.179-.006 2.357-.034 3.536-.01.389.21.374.477.374h2.21c1.574 0 3.149 0 4.723-.016.514-.006.647.156.6.628a6.145 6.145 0 0 0 0 1.124c.033.375-.088.481-.47.477-2.06-.019-4.121-.01-6.181-.01-1.183 0-2.366-.016-3.548.01h-.035c-.361.01-.437-.119-.434-.478zm42.613.021c.013-2.218.006-4.435.006-6.653 0-2.183.014-4.364-.011-6.546 0-.436.126-.552.542-.526a13.576 13.576 0 0 0 1.666 0c.393-.023.471.125.47.487-.013 3.524-.008 7.048-.008 10.571 0 .886 0 .886.915.886 2.008 0 4.016.007 6.024-.007.359 0 .522.072.492.468a9.114 9.114 0 0 0 0 1.341c.026.369-.121.441-.46.44q-4.6-.018-9.2 0h-.009c-.36.004-.43-.124-.428-.456z" data-name="Union 47"/>
        </g>
    </g>
</svg>
