<svg xmlns="http://www.w3.org/2000/svg" width="24" height="24" viewBox="0 0 24 24">
    <defs>
        <clipPath id="prefix__clip-path">
            <path d="M0 0H24V24H0z" class="prefix__cls-1"/>
        </clipPath>
        <style>
            .prefix__cls-1{fill:none}.prefix__cls-3{fill:#fff}
        </style>
    </defs>
    <g id="prefix__menu-expanded">
        <path id="prefix__Path" d="M0 0H24V24H0z" class="prefix__cls-1"/>
        <g id="prefix__menu-expanded-2" data-name="menu-expanded">
            <path id="prefix__Path_1" d="M4.5 7.5h5a1.5 1.5 0 0 0 0-3h-5a1.5 1.5 0 0 0 0 3z" class="prefix__cls-3" data-name="Path 1"/>
            <path id="prefix__Path_2" d="M19.5 10.5h-15a1.5 1.5 0 0 0 0 3h15a1.5 1.5 0 0 0 0-3z" class="prefix__cls-3" data-name="Path 2"/>
            <path id="prefix__Path_3" d="M15.5 16.5h-11a1.5 1.5 0 0 0 0 3h11a1.5 1.5 0 0 0 0-3z" class="prefix__cls-3" data-name="Path 3"/>
        </g>
    </g>
</svg>
