<svg xmlns="http://www.w3.org/2000/svg" id="prefix__reset" width="36" height="36" viewBox="0 0 36 36">
    <path id="prefix__Path" d="M0 0H36V36H0z" style="fill:none"/>
    <path id="prefix__reset-2" d="M25.9 6.078L23.846 8.16a11.009 11.009 0 0 0-17.508 2.662 10.666 10.666 0 0 0 0 10.365 11 11 0 0 0 20.648-3.977 1.112 1.112 0 0 0-.974-1.237h-.126a1.051 1.051 0 0 0-1.068.939 8.857 8.857 0 0 1-12.467 7.139 8.491 8.491 0 0 1-4.93-6.09 8.822 8.822 0 0 1 14.855-8.235l-1.884 1.863a.642.642 0 0 0 .455 1.1h5.511a.627.627 0 0 0 .628-.642V6.594c0-.908-.486-1.111-1.086-.516z" data-name="reset" transform="translate(2 2)" style="fill:#ffab38"/>
</svg>
