<svg xmlns="http://www.w3.org/2000/svg" id="prefix__icon" width="14.65" height="11.264" viewBox="0 0 14.65 11.264">
    <defs>
        <style>
            .prefix__cls-1{fill:#21b52c}
        </style>
    </defs>
    <path id="prefix__Path_4310" d="M42.87 128.7a1.09 1.09 0 0 0-.475-.1h-8.472a2.72 2.72 0 0 0-1.121.275 2.625 2.625 0 0 0-.936.676l-2.621 3.089a.8.8 0 0 0-.245.512.341.341 0 0 0 .208.334 1.09 1.09 0 0 0 .475.1h8.48a2.72 2.72 0 0 0 1.121-.275 2.625 2.625 0 0 0 .936-.676l2.621-3.089a.8.8 0 0 0 .245-.512.374.374 0 0 0-.216-.334z" class="prefix__cls-1" data-name="Path 4310" transform="translate(-28.436 -122.326)"/>
    <path id="prefix__Path_4311" d="M25.35 49.751a3.694 3.694 0 0 1 1.537-.371h6.482l.007-1.983a1.648 1.648 0 0 0-1.648-1.641h-4.343v-.022a1.65 1.65 0 0 0-1.641-1.634h-2.7a1.646 1.646 0 0 0-1.644 1.634v8.034l2.673-3.089a3.764 3.764 0 0 1 1.277-.928z" class="prefix__cls-1" data-name="Path 4311" transform="translate(-21.4 -44.1)"/>
</svg>
