<svg xmlns="http://www.w3.org/2000/svg" id="prefix__water-2" width="22" height="23" viewBox="0 0 22 23">
    <path id="prefix__Rectangle_2000" d="M0 0H22V23H0z" data-name="Rectangle 2000" style="fill:none"/>
    <path id="prefix__Path_2671" d="M73.6 8.65a4.787 4.787 0 1 0 9.574 0c0-2.659-4.787-8.65-4.787-8.65S73.6 6.019 73.6 8.65z" data-name="Path 2671" transform="translate(-66.934 5.196)" style="fill:#bbdefb;stroke:#263c58;stroke-width:.3px"/>
    <path id="prefix__Path_2672" d="M122.02 317.547a3.53 3.53 0 0 0 3.527-3.527.42.42 0 0 0-.84 0 2.688 2.688 0 0 1-2.687 2.688.42.42 0 1 0 0 .84z" data-name="Path 2672" transform="translate(-110.567 -300.173)" style="fill:#fff"/>
</svg>
