<svg xmlns="http://www.w3.org/2000/svg" id="prefix__il-cloud" width="28.924" height="20.66" viewBox="0 0 28.924 20.66">
    <ellipse id="prefix__Ellipse_25" cx="5.279" cy="5.512" data-name="Ellipse 25" rx="5.279" ry="5.512" transform="translate(18.366)" style="fill:#ffc107"/>
    <path id="prefix__Path_2712" d="M5.556 119.493A9.047 9.047 0 0 1 14.348 112a8.964 8.964 0 0 1 8.222 5.62 6.564 6.564 0 0 1-.151 13.108H5.381a5.62 5.62 0 0 1 .176-11.235z" data-name="Path 2712" transform="translate(0 -110.068)" style="fill:#a8c7e2"/>
    <path id="prefix__Path_2716" d="M2.787 121.7c-.674-3.33 2.078-8.507 6.4-8.507 3.589 0 6.928 1.6 8.339 4.994a6.564 6.564 0 0 1-.151 13.108c-20.006 0-19.36-8.395-14.588-9.595z" data-name="Path 2716" transform="translate(5.045 -110.635)" style="fill:#bbdefb"/>
</svg>
